<?xml version="1.0" standalone="no"?>
<!DOCTYPE svg PUBLIC "-//W3C//DTD SVG 20010904//EN"
 "http://www.w3.org/TR/2001/REC-SVG-20010904/DTD/svg10.dtd">
<svg version="1.0" xmlns="http://www.w3.org/2000/svg"
 width="512.000000pt" height="512.000000pt" viewBox="0 0 512.000000 512.000000"
 preserveAspectRatio="xMidYMid meet">

<g transform="translate(0.000000,512.000000) scale(0.100000,-0.100000)"
fill="#000000" stroke="none">
<path d="M295 5061 c-69 -17 -134 -70 -171 -141 -18 -34 -19 -109 -19 -2265
l0 -2230 22 -40 c28 -52 78 -99 128 -122 37 -17 85 -18 588 -21 l547 -3 0 -64
c0 -35 4 -75 9 -88 14 -36 48 -44 75 -18 19 20 21 32 19 129 0 59 -5 117 -10
129 -4 12 -207 221 -449 465 -243 244 -447 454 -454 467 -10 19 -14 124 -18
416 -4 350 -3 394 12 423 18 34 61 62 98 62 28 0 83 -33 96 -57 5 -10 13 -155
17 -323 8 -353 7 -351 105 -444 74 -71 111 -75 133 -13 5 13 -11 36 -58 87
-35 37 -67 79 -69 92 -3 13 -7 154 -8 313 -3 275 -4 292 -25 330 -41 78 -106
117 -193 117 -93 0 -167 -50 -200 -137 -9 -21 -12 -148 -11 -435 1 -341 4
-413 17 -454 15 -43 60 -92 435 -466 231 -230 419 -420 419 -424 0 -3 -227 -6
-505 -6 -487 0 -507 1 -545 20 -26 13 -47 34 -60 60 -20 39 -20 54 -20 2235
l0 2196 21 40 c14 29 32 46 62 60 39 17 72 19 518 19 l477 0 108 -267 c162
-399 154 -393 555 -393 268 0 279 2 279 55 0 51 -23 55 -295 55 -230 0 -253 2
-282 20 -18 10 -39 29 -47 42 -19 29 -196 458 -196 475 0 11 315 13 1703 11
1691 -3 1702 -3 1737 -23 69 -41 75 -64 78 -307 l3 -218 -788 -1 c-433 0 -963
0 -1176 1 -339 1 -392 -1 -413 -15 -31 -20 -31 -59 -2 -79 20 -14 150 -16
1200 -16 l1178 0 0 -1926 0 -1926 -22 -40 c-14 -24 -38 -48 -60 -59 -35 -18
-66 -19 -543 -19 -278 0 -505 2 -505 5 0 3 113 117 250 254 138 136 250 256
250 265 0 33 -20 56 -48 56 -22 0 -79 -52 -314 -287 l-288 -288 -11 -60 c-15
-78 -6 -191 17 -216 22 -24 39 -24 65 2 17 17 20 31 18 92 l-2 72 549 5 c501
5 553 7 589 23 50 23 100 70 128 122 l22 40 0 2230 c0 2156 -1 2231 -19 2265
-26 49 -74 98 -121 123 l-40 22 -2255 2 c-1240 0 -2268 -2 -2285 -6z"/>
<path d="M4508 4863 c-22 -6 -22 -12 -2 -41 14 -20 14 -22 -1 -22 -25 0 -87
-35 -114 -64 -19 -20 -26 -40 -29 -85 -4 -53 -2 -59 17 -64 15 -3 21 -13 21
-32 0 -20 4 -26 18 -23 11 2 17 13 17 28 0 25 1 25 94 28 105 3 138 -3 109
-19 -24 -14 -23 -39 2 -39 16 0 20 7 20 30 0 23 4 30 20 30 17 0 20 7 20 53 0
77 -40 127 -117 149 -36 10 -40 14 -32 31 10 18 -4 49 -20 46 -3 -1 -14 -3
-23 -6z m142 -313 c0 -5 -4 -10 -10 -10 -5 0 -10 5 -10 10 0 6 5 10 10 10 6 0
10 -4 10 -10z"/>
<path d="M3896 4794 c-10 -25 -7 -34 9 -34 8 0 15 9 15 19 0 26 -16 35 -24 15z"/>
<path d="M3990 4780 c-13 -8 -12 -10 3 -10 9 0 17 5 17 10 0 12 -1 12 -20 0z"/>
<path d="M3950 4745 c14 -16 4 -39 -14 -32 -7 3 -19 1 -27 -4 -9 -6 5 -9 40
-9 l55 0 -29 30 c-30 31 -47 41 -25 15z"/>
<path d="M3353 4683 c-23 -8 -13 -20 17 -21 17 0 30 3 30 8 0 10 -31 18 -47
13z"/>
<path d="M3841 4674 c0 -11 3 -14 6 -6 3 7 2 16 -1 19 -3 4 -6 -2 -5 -13z"/>
<path d="M3975 4680 c-3 -5 -28 -10 -55 -10 -27 0 -52 -4 -55 -10 -3 -6 1 -7
10 -4 9 4 28 0 42 -7 21 -11 27 -11 30 -1 3 7 25 13 56 13 29 1 42 4 30 6 -13
2 -23 9 -23 14 0 12 -27 12 -35 -1z"/>
<path d="M3288 4668 c9 -9 15 -9 24 0 9 9 7 12 -12 12 -19 0 -21 -3 -12 -12z"/>
<path d="M3425 4670 c3 -5 13 -10 21 -10 8 0 14 5 14 10 0 6 -9 10 -21 10 -11
0 -17 -4 -14 -10z"/>
<path d="M562 4658 c-19 -19 -15 -66 7 -78 12 -6 105 -10 233 -10 177 0 217 3
236 16 24 17 29 53 10 72 -17 17 -469 17 -486 0z"/>
<path d="M4007 4643 c-15 -15 -5 -23 30 -23 35 0 36 1 17 15 -21 16 -37 19
-47 8z"/>
<path d="M3936 4615 c4 -8 14 -15 24 -15 10 0 20 7 24 15 4 11 -2 15 -24 15
-22 0 -28 -4 -24 -15z"/>
<path d="M3867 4604 c-17 -17 13 -24 104 -24 61 0 99 4 99 10 0 16 -30 24 -43
11 -14 -14 -114 -15 -122 -1 -7 11 -28 13 -38 4z"/>
<path d="M4467 4550 c-3 -12 0 -20 7 -20 18 0 25 10 19 26 -7 20 -20 17 -26
-6z"/>
<path d="M4515 4560 c-3 -6 -1 -10 5 -10 6 0 8 -4 5 -10 -3 -5 -2 -10 4 -10
17 0 20 14 5 27 -8 8 -15 9 -19 3z"/>
<path d="M4570 4549 c0 -24 23 -21 28 4 2 10 -3 17 -12 17 -10 0 -16 -9 -16
-21z"/>
<path d="M2342 4404 c-31 -22 -26 -63 10 -83 24 -14 28 -14 47 3 27 25 27 61
-1 80 -28 20 -28 20 -56 0z"/>
<path d="M2362 3940 c-46 -28 -72 -76 -72 -133 0 -37 -4 -49 -17 -53 -151 -46
-310 -133 -402 -219 l-49 -46 -43 21 c-57 30 -137 24 -175 -11 -14 -13 -59
-80 -100 -149 -65 -111 -74 -131 -74 -175 0 -61 24 -103 75 -135 34 -21 37
-26 31 -59 -3 -20 -6 -42 -6 -48 0 -28 -21 -8 -109 102 -53 67 -100 117 -113
120 -13 3 -57 5 -98 3 l-75 -3 5 -30 c8 -47 6 -796 -2 -832 l-7 -33 126 0 126
0 -8 43 c-4 23 -10 146 -14 272 -4 127 -10 238 -15 248 -4 9 -6 17 -3 17 3 0
105 -130 227 -290 l222 -289 77 -4 76 -3 -92 -2 c-54 -1 -94 2 -98 8 -4 6 -11
7 -17 4 -6 -4 -8 -3 -5 3 3 5 -14 34 -38 64 -24 30 -44 62 -45 72 0 16 -106
167 -117 167 -3 0 -2 -22 2 -48 6 -48 6 -49 -34 -75 -50 -33 -74 -77 -73 -135
1 -35 15 -68 73 -168 88 -153 120 -184 190 -184 30 0 65 8 90 20 l40 21 50
-45 c92 -82 224 -159 349 -201 l65 -22 6 -56 c7 -65 27 -100 72 -127 28 -18
51 -20 197 -20 147 0 169 2 198 20 46 28 72 76 72 133 0 37 4 49 18 53 143 44
300 129 400 217 29 26 55 47 57 47 3 0 19 -9 37 -20 44 -26 120 -27 162 -1 22
14 55 61 106 149 68 117 79 131 120 150 68 32 155 119 169 167 24 86 5 188
-40 224 -13 10 -35 28 -49 40 l-25 21 37 32 c48 44 58 66 58 135 0 99 -13 126
-91 193 -38 33 -74 60 -78 60 -5 0 -12 17 -16 39 -5 33 -111 228 -155 287 -43
57 -134 73 -198 34 -18 -11 -34 -20 -37 -20 -2 0 -27 20 -54 44 -102 91 -209
154 -343 201 l-78 28 0 46 c0 55 -26 103 -72 131 -29 18 -51 20 -198 20 -147
0 -169 -2 -198 -20z m783 -570 l-20 -9 20 -1 c11 -2 24 -2 28 -1 5 1 6 -2 3
-7 -3 -4 9 -24 26 -43 30 -34 98 -133 98 -144 0 -3 -34 -5 -75 -5 l-76 0 8
-37 c4 -21 8 -207 8 -413 0 -206 -4 -392 -8 -412 l-8 -38 202 0 c111 0 200 -3
196 -6 -3 -3 -71 -5 -151 -5 -86 1 -146 -2 -146 -8 0 -19 -157 -164 -230 -212
-234 -154 -543 -180 -800 -66 -93 42 -114 88 -59 129 26 20 27 20 75 -1 135
-56 183 -66 324 -65 120 0 144 3 220 28 91 30 140 53 179 83 136 105 176 150
165 185 -3 10 -2 23 3 30 12 20 15 69 20 380 3 242 1 292 -12 323 -8 21 -13
41 -10 45 3 5 1 20 -5 34 -5 14 -6 26 -1 26 24 0 15 32 -20 75 -33 39 -39 54
-37 85 2 21 6 36 10 34 4 -3 20 2 35 10 16 8 35 15 43 15 10 0 8 -3 -5 -9z
m-865 -24 c0 -2 -7 -7 -16 -10 -8 -3 -12 -2 -9 4 6 10 25 14 25 6z m440 -85
c36 -11 92 -37 125 -58 l60 -38 -88 -3 -89 -3 9 -42 c4 -23 8 -169 8 -324 l0
-283 -43 -42 -42 -43 -86 -4 -85 -3 -49 50 -50 49 0 274 c0 165 4 289 11 313
14 51 6 56 -101 56 l-85 1 25 21 c38 32 162 87 222 97 73 13 181 6 258 -18z
m630 -87 c0 -2 -9 -4 -20 -4 -11 0 -20 4 -20 9 0 5 9 7 20 4 11 -3 20 -7 20
-9z m-1796 -10 c3 -8 2 -12 -4 -9 -6 3 -10 10 -10 16 0 14 7 11 14 -7z m194
-65 c14 -80 16 -519 3 -519 -23 0 -34 86 -36 295 -2 105 -6 212 -9 239 -5 35
-3 52 6 57 18 12 23 2 36 -72z m29 75 c-3 -3 -12 -4 -19 -1 -8 3 -5 6 6 6 11
1 17 -2 13 -5z m106 -1 c-13 -2 -33 -2 -45 0 -13 2 -3 4 22 4 25 0 35 -2 23
-4z m1555 0 c-10 -2 -26 -2 -35 0 -10 3 -2 5 17 5 19 0 27 -2 18 -5z m95 0
c-7 -2 -19 -2 -25 0 -7 3 -2 5 12 5 14 0 19 -2 13 -5z m-1364 -73 c7 -30 11
-169 11 -336 0 -218 3 -292 14 -317 16 -39 143 -162 180 -177 15 -5 102 -10
194 -10 142 0 173 3 207 19 47 22 159 134 174 174 7 17 11 140 12 315 0 158 4
296 8 307 7 17 13 12 44 -35 134 -205 108 -485 -61 -662 -110 -116 -237 -171
-392 -170 -115 0 -199 24 -288 82 -164 106 -252 265 -252 458 0 73 -3 86 -23
105 -18 17 -21 29 -17 57 4 30 9 35 35 38 17 2 36 8 43 14 16 14 15 63 -2 77
-14 12 -11 51 4 51 5 0 11 9 15 20 5 16 10 18 31 10 34 -13 34 -13 34 10 0 39
18 19 29 -30z m1466 -121 c30 -27 35 -37 35 -77 0 -36 -6 -52 -27 -74 -26 -27
-51 -39 -38 -18 3 5 -1 50 -9 100 -9 49 -16 92 -16 95 0 13 22 2 55 -26z
m-225 -151 c0 -27 -4 -38 -15 -38 -12 0 -15 14 -14 68 1 65 1 66 14 37 8 -16
14 -47 15 -67z m-8 -208 c-6 -44 -22 -47 -22 -6 0 23 5 36 13 36 9 0 12 -10 9
-30z m88 23 c0 -5 -16 -8 -35 -8 -19 0 -35 3 -35 8 0 4 16 7 35 7 19 0 35 -3
35 -7z m174 -33 c29 -32 36 -48 36 -81 0 -35 -6 -47 -36 -75 -34 -33 -63 -46
-48 -23 4 7 -3 19 -14 28 -21 15 -21 19 -10 104 8 52 17 87 24 87 6 0 28 -18
48 -40z m-221 -187 c-7 -2 -19 -2 -25 0 -7 3 -2 5 12 5 14 0 19 -2 13 -5z
m-1793 -54 c0 -6 -4 -7 -10 -4 -5 3 -10 11 -10 16 0 6 5 7 10 4 6 -3 10 -11
10 -16z m411 -159 c40 -42 41 -57 11 -92 -17 -21 -44 -23 -75 -7 -57 31 -75
95 -35 123 35 25 58 19 99 -24z m1418 -34 c9 -10 8 -15 -2 -19 -8 -3 -13 3
-13 14 0 23 0 23 15 5z m-1624 -36 c-3 -5 -14 -10 -23 -9 -14 0 -13 2 3 9 27
11 27 11 20 0z m-80 -20 c3 -6 -1 -7 -9 -4 -18 7 -21 14 -7 14 6 0 13 -4 16
-10z m1140 0 c-3 -5 -11 -10 -16 -10 -6 0 -7 5 -4 10 3 6 11 10 16 10 6 0 7
-4 4 -10z m-148 -6 c-3 -3 -12 -4 -19 -1 -8 3 -5 6 6 6 11 1 17 -2 13 -5z m88
-254 c-27 -12 -43 -12 -25 0 8 5 22 9 30 9 10 0 8 -3 -5 -9z"/>
<path d="M4387 2247 c-51 -16 -103 -60 -129 -110 -22 -40 -23 -55 -28 -349
l-5 -308 -275 -275 c-151 -151 -287 -280 -303 -286 -62 -26 -147 31 -147 99 0
39 17 62 150 197 131 134 150 164 150 240 0 43 -43 129 -76 152 -65 46 -156
53 -222 19 -15 -8 -147 -135 -293 -283 -253 -255 -268 -272 -307 -353 -65
-132 -73 -176 -79 -428 l-6 -222 -257 0 -257 0 -6 223 c-7 276 -26 360 -110
487 -43 66 -535 558 -581 582 -60 31 -152 22 -203 -18 -74 -59 -102 -159 -68
-241 9 -21 70 -92 139 -162 68 -70 129 -136 135 -148 38 -74 -38 -166 -122
-147 -21 4 -63 37 -123 95 -51 49 -99 89 -108 89 -21 0 -56 -35 -56 -56 0 -25
167 -191 215 -214 135 -65 292 22 303 169 7 97 -7 121 -155 272 -126 129 -133
139 -133 177 0 70 63 114 126 87 16 -7 144 -129 284 -271 359 -363 350 -341
350 -852 0 -309 1 -323 20 -342 25 -25 35 -25 60 0 16 16 20 33 20 95 l0 75
270 0 270 0 0 -78 c0 -66 3 -82 20 -97 17 -15 24 -16 45 -7 13 6 27 22 30 34
2 13 6 178 8 368 3 327 4 348 25 404 12 33 34 80 49 105 34 60 518 549 561
567 27 12 37 12 66 0 41 -17 56 -42 56 -92 0 -34 -11 -48 -134 -173 -147 -150
-161 -175 -154 -271 10 -138 138 -219 283 -179 33 9 88 59 324 293 190 188
289 294 302 321 15 35 19 82 25 350 l7 310 33 33 c26 26 40 32 74 32 35 0 48
-6 77 -35 l35 -35 -4 -402 c-3 -396 -3 -404 -25 -439 -12 -19 -31 -44 -43 -54
-11 -10 -20 -28 -20 -40 0 -25 29 -55 53 -55 36 0 108 84 127 149 4 17 10 214
11 438 3 401 2 409 -19 450 -28 53 -83 98 -138 112 -52 13 -68 13 -117 -2z"/>
<path d="M1075 1220 c-28 -30 -10 -74 30 -78 40 -3 58 10 58 44 0 50 -55 71
-88 34z"/>
<path d="M4352 1054 c-39 -27 -19 -94 27 -94 24 0 51 31 51 58 0 18 -33 52
-50 52 -3 0 -16 -7 -28 -16z"/>
</g>
</svg>
